<svg width="179" height="42" viewBox="0 0 179 42" fill="none" xmlns="http://www.w3.org/2000/svg">
<path d="M19.928 0.0639992C21.2933 -0.0640017 22.3173 0.0426648 23 0.383999C23.6827 0.682666 24.1093 1.00267 24.28 1.344C24.7067 2.06933 24.856 2.79467 24.728 3.52C24.3867 4.928 23.96 6.54933 23.448 8.384C22.936 10.176 22.3813 12.0533 21.784 14.016C21.1867 15.9787 20.568 17.9627 19.928 19.968C19.288 21.9307 18.6907 23.808 18.136 25.6C17.5813 27.3493 17.0693 28.9707 16.6 30.464C16.1733 31.9147 15.832 33.1093 15.576 34.048C14.4667 33.92 13.4427 33.7067 12.504 33.408C11.608 33.152 10.84 32.7893 10.2 32.32C9.60267 31.8507 9.19733 31.2747 8.984 30.592C8.81333 29.9093 8.89867 29.0773 9.24 28.096C9.624 27.0293 10.2213 25.4507 11.032 23.36C11.8427 21.2267 12.7173 18.9013 13.656 16.384C14.5947 13.8667 15.5547 11.3067 16.536 8.704C17.56 6.10133 18.456 3.79733 19.224 1.792C15.896 2.34667 13.4213 3.30667 11.8 4.672C10.1787 5.99467 9.13333 7.44533 8.664 9.024C8.23733 10.56 8.25867 12.1173 8.728 13.696C9.19733 15.232 9.85867 16.512 10.712 17.536C8.83467 17.408 7.23467 17.088 5.912 16.576C4.54667 16.064 3.45867 15.424 2.648 14.656C1.79467 13.888 1.26133 13.0347 1.048 12.096C0.792 11.1147 0.856 10.1333 1.24 9.152C2.136 6.72 4.22667 4.69333 7.512 3.072C10.7973 1.45067 14.936 0.447999 19.928 0.0639992ZM28.7645 21.44C30.0018 19.8613 31.0685 18.5387 31.9645 17.472C32.9032 16.4053 33.7138 15.552 34.3965 14.912C35.1218 14.272 35.7405 13.8453 36.2525 13.632C36.7645 13.376 37.2338 13.248 37.6605 13.248C38.9832 13.248 39.7725 13.8453 40.0285 15.04C40.1565 15.5093 40.1778 16.064 40.0925 16.704C40.0072 17.344 39.8365 18.1333 39.5805 19.072C39.3245 19.968 38.9832 21.056 38.5565 22.336C38.1725 23.616 37.7245 25.152 37.2125 26.944C36.9138 28.1387 36.9352 28.7147 37.2765 28.672C37.6178 28.6293 38.1512 28.2027 38.8765 27.392C39.6445 26.5813 40.5405 25.536 41.5645 24.256C42.6312 22.9333 43.6978 21.5893 44.7645 20.224C44.7645 20.2667 44.8285 20.3733 44.9565 20.544C45.0845 20.672 45.1912 20.864 45.2765 21.12C45.3618 21.376 45.3618 21.6747 45.2765 22.016C45.2338 22.3573 45.0632 22.72 44.7645 23.104C43.9112 24.128 43.1645 25.0453 42.5245 25.856C41.8845 26.624 41.2658 27.328 40.6685 27.968C40.0712 28.608 39.4525 29.2053 38.8125 29.76C38.2152 30.3147 37.5112 30.8693 36.7005 31.424C36.2312 31.7653 35.6978 31.9573 35.1005 32C34.5458 32.0427 33.9912 31.9787 33.4365 31.808C32.9245 31.6373 32.4765 31.36 32.0925 30.976C31.7512 30.592 31.6018 30.144 31.6445 29.632C31.7298 28.2667 31.9645 26.7947 32.3485 25.216C32.7752 23.5947 33.2872 21.9093 33.8845 20.16C34.0552 19.6053 34.0125 19.264 33.7565 19.136C33.5432 19.008 33.2018 19.1787 32.7325 19.648C32.0498 20.3307 31.2178 21.2267 30.2365 22.336C29.2978 23.4453 28.4658 24.4693 27.7405 25.408L27.1005 27.84C26.5885 29.7173 26.0338 30.8907 25.4365 31.36C24.8392 31.8293 24.0498 32.0427 23.0685 32C22.4285 31.9573 21.9378 31.744 21.5965 31.36C21.2125 30.976 21.1058 30.4213 21.2765 29.696C21.4898 28.672 21.7458 27.5413 22.0445 26.304C22.3432 25.024 22.6845 23.7013 23.0685 22.336C23.4952 20.9707 23.9432 19.6267 24.4125 18.304C24.8818 16.9387 25.3938 15.6373 25.9485 14.4C26.1618 13.888 26.5245 13.5467 27.0365 13.376C27.5912 13.1627 28.1458 13.0773 28.7005 13.12C29.2978 13.1627 29.7885 13.2693 30.1725 13.44C30.5992 13.6107 30.7912 13.7813 30.7485 13.952L28.7645 21.44ZM46.587 29.184C46.7577 29.6533 47.035 29.9947 47.419 30.208C47.8457 30.4213 48.2297 30.528 48.571 30.528C49.2963 30.5707 49.915 30.4213 50.427 30.08C50.939 29.7387 51.3017 29.376 51.515 28.992C51.9417 28.4373 52.0057 27.904 51.707 27.392C51.4083 26.88 50.939 26.368 50.299 25.856C49.659 25.344 48.891 24.832 47.995 24.32C47.1417 23.7653 46.3523 23.2107 45.627 22.656C44.9017 22.0587 44.3257 21.44 43.899 20.8C43.4723 20.16 43.3657 19.456 43.579 18.688C44.0483 17.024 45.0297 15.68 46.523 14.656C48.059 13.5893 50.0217 13.0347 52.411 12.992C54.5443 12.9493 56.187 13.248 57.339 13.888C58.491 14.4853 59.2377 15.3813 59.579 16.576C59.835 17.5573 59.6643 18.432 59.067 19.2C58.5123 19.968 57.7657 20.5653 56.827 20.992C55.931 21.4187 54.9497 21.5893 53.883 21.504C52.859 21.4187 52.0057 20.992 51.323 20.224C52.4323 20.0107 53.2857 19.4773 53.883 18.624C54.523 17.728 54.907 16.8533 55.035 16C55.0777 15.1893 54.8857 14.7413 54.459 14.656C54.0323 14.528 53.499 14.6133 52.859 14.912C52.2617 15.2107 51.643 15.6373 51.003 16.192C50.363 16.704 49.8937 17.1733 49.595 17.6C49.1257 18.1973 48.955 18.7307 49.083 19.2C49.2537 19.6693 49.595 20.1173 50.107 20.544C50.619 20.928 51.2377 21.3333 51.963 21.76C52.6883 22.144 53.3923 22.5707 54.075 23.04C54.7577 23.5093 55.355 24.0427 55.867 24.64C56.379 25.2373 56.6563 25.92 56.699 26.688C56.827 28.1813 56.2083 29.4613 54.843 30.528C53.5203 31.552 51.6217 32.064 49.147 32.064C47.995 32.064 46.9497 31.9573 46.011 31.744C45.0723 31.488 44.283 31.1467 43.643 30.72C43.003 30.2507 42.555 29.7173 42.299 29.12C42.0003 28.5227 41.9577 27.904 42.171 27.264C42.3417 26.624 42.7257 26.0907 43.323 25.664C43.963 25.2373 44.667 24.9813 45.435 24.896C46.2457 24.768 47.0563 24.832 47.867 25.088C48.7203 25.344 49.4457 25.8347 50.043 26.56C48.9337 26.7733 48.0163 27.1147 47.291 27.584C46.6083 28.0107 46.3737 28.544 46.587 29.184ZM69.1595 9.408H72.3595C72.8288 9.36533 73.1702 9.408 73.3835 9.536C73.5968 9.664 73.6822 9.81333 73.6395 9.984C73.5968 10.1547 73.4475 10.3253 73.1915 10.496C72.9355 10.624 72.5515 10.7093 72.0395 10.752H68.7755L64.2315 26.944C63.9328 28.1387 63.9542 28.7147 64.2955 28.672C64.6368 28.6293 65.1702 28.2027 65.8955 27.392C66.6635 26.5813 67.5595 25.536 68.5835 24.256C69.6502 22.9333 70.7168 21.5893 71.7835 20.224C71.7835 20.2667 71.8475 20.3733 71.9755 20.544C72.1035 20.672 72.2102 20.864 72.2955 21.12C72.3808 21.376 72.3808 21.6747 72.2955 22.016C72.2528 22.3573 72.0822 22.72 71.7835 23.104C70.9302 24.128 70.1835 25.0453 69.5435 25.856C68.9035 26.624 68.2848 27.328 67.6875 27.968C67.0902 28.608 66.4715 29.2053 65.8315 29.76C65.2342 30.3147 64.5302 30.8693 63.7195 31.424C63.2928 31.7653 62.7808 31.9573 62.1835 32C61.5862 32.0427 61.0315 31.9787 60.5195 31.808C60.0075 31.6373 59.5808 31.36 59.2395 30.976C58.8555 30.592 58.6848 30.144 58.7275 29.632C58.8128 28.6507 58.9622 27.6267 59.1755 26.56C59.3888 25.4933 59.6662 24.3413 60.0075 23.104C60.6048 21.0133 61.2235 18.88 61.8635 16.704C62.5462 14.528 63.1862 12.544 63.7835 10.752H63.3355C62.4822 10.752 62.0342 10.5387 61.9915 10.112C61.9488 9.68533 62.4822 9.45067 63.5915 9.408H64.2315C64.6155 8.21333 64.9995 7.18933 65.3835 6.336C65.5968 5.824 65.9808 5.48267 66.5355 5.312C67.0902 5.14133 67.6448 5.07733 68.1995 5.12C68.7542 5.12 69.2235 5.20533 69.6075 5.376C70.0342 5.54667 70.2262 5.71733 70.1835 5.888L69.1595 9.408ZM86.96 15.168C87.1307 16.064 86.832 16.832 86.064 17.472C86.4053 17.5573 86.6827 17.6427 86.896 17.728C87.1093 17.8133 87.1947 17.8987 87.152 17.984C86.8107 19.5627 86.384 21.0773 85.872 22.528C85.36 23.9787 84.9333 25.4507 84.592 26.944C84.2933 28.1387 84.2933 28.7147 84.592 28.672C84.9333 28.6293 85.4667 28.2027 86.192 27.392C86.9173 26.5813 87.7707 25.536 88.752 24.256C89.776 22.9333 90.8213 21.5893 91.888 20.224C91.888 20.2667 91.952 20.3733 92.08 20.544C92.208 20.672 92.3147 20.864 92.4 21.12C92.4853 21.376 92.4853 21.6747 92.4 22.016C92.3573 22.3573 92.1867 22.72 91.888 23.104C91.0347 24.128 90.288 25.0453 89.648 25.856C89.008 26.624 88.3893 27.328 87.792 27.968C87.1947 28.608 86.576 29.2053 85.936 29.76C85.3387 30.3147 84.6347 30.8693 83.824 31.424C83.3973 31.7653 82.9067 31.9787 82.352 32.064C81.84 32.1493 81.328 32.128 80.816 32C80.3467 31.9147 79.92 31.744 79.536 31.488C79.1947 31.232 78.9813 30.9333 78.896 30.592C78.8107 30.2933 78.768 29.9733 78.768 29.632C78.8107 29.2907 78.8533 28.928 78.896 28.544C77.9573 29.44 76.9333 30.2507 75.824 30.976C74.7147 31.7013 73.6693 32.064 72.688 32.064C71.7493 32.064 71.0027 31.872 70.448 31.488C69.8933 31.104 69.5307 30.6133 69.36 30.016C68.9333 28.5653 68.9547 26.8587 69.424 24.896C69.8933 22.9333 70.704 21.0773 71.856 19.328C73.0507 17.536 74.544 16.0427 76.336 14.848C78.1707 13.6107 80.2187 13.0133 82.48 13.056C83.5467 13.056 84.5067 13.2267 85.36 13.568C86.256 13.9093 86.7893 14.4427 86.96 15.168ZM79.728 18.24C80.8373 18.0267 81.6907 17.6853 82.288 17.216C82.928 16.7467 83.3333 16.192 83.504 15.552C83.5467 15.296 83.4187 15.0187 83.12 14.72C82.864 14.4213 82.3947 14.3787 81.712 14.592C80.7733 14.848 79.856 15.616 78.96 16.896C78.1067 18.1333 77.3387 19.52 76.656 21.056C76.016 22.5493 75.5253 24.0213 75.184 25.472C74.8427 26.9227 74.736 27.9893 74.864 28.672C74.9067 29.0133 75.0987 29.1627 75.44 29.12C75.824 29.0347 76.2293 28.8427 76.656 28.544C77.1253 28.2027 77.5947 27.8187 78.064 27.392C78.576 26.9227 79.024 26.4533 79.408 25.984C79.7067 24.7893 80.048 23.5733 80.432 22.336C80.816 21.0987 81.1787 19.9467 81.52 18.88C80.752 18.88 80.1547 18.6667 79.728 18.24ZM103.565 29.568C104.418 28.8427 105.336 27.968 106.317 26.944C107.341 25.92 108.472 24.6613 109.709 23.168C110.136 22.6987 110.498 22.208 110.797 21.696C111.138 21.184 111.522 20.6933 111.949 20.224C111.949 20.2667 112.013 20.3733 112.141 20.544C112.269 20.672 112.376 20.864 112.461 21.12C112.546 21.376 112.568 21.6747 112.525 22.016C112.482 22.3573 112.312 22.72 112.013 23.104L111.309 23.872C109.688 25.92 108.152 27.6267 106.701 28.992C105.25 30.3573 103.906 31.4667 102.669 32.32L100.749 38.4C100.194 39.5947 99.469 40.4267 98.573 40.896C97.677 41.408 96.7597 41.664 95.821 41.664C94.925 41.664 94.0717 41.472 93.261 41.088C92.4503 40.704 91.8743 40.192 91.533 39.552C91.2343 38.912 91.2343 38.208 91.533 37.44C91.8317 36.7147 92.5997 36.0107 93.837 35.328C94.9463 34.688 96.013 34.1547 97.037 33.728L98.381 29.12C97.485 29.9307 96.5463 30.6347 95.565 31.232C94.5837 31.7867 93.6663 32.064 92.813 32.064C91.8743 32.064 91.1277 31.872 90.573 31.488C90.0183 31.104 89.6557 30.6133 89.485 30.016C89.0583 28.5653 89.0797 26.8587 89.549 24.896C90.0183 22.9333 90.829 21.0773 91.981 19.328C93.1757 17.536 94.669 16.0427 96.461 14.848C98.2957 13.6107 100.344 13.0133 102.605 13.056C103.672 13.056 104.632 13.2267 105.485 13.568C106.381 13.9093 106.914 14.4427 107.085 15.168C107.256 15.9787 106.957 16.7467 106.189 17.472C106.53 17.5573 106.808 17.6427 107.021 17.728C107.234 17.8133 107.32 17.8987 107.277 17.984L103.565 29.568ZM99.853 18.24C100.962 18.0267 101.816 17.6853 102.413 17.216C103.053 16.7467 103.458 16.192 103.629 15.552C103.672 15.296 103.544 15.0187 103.245 14.72C102.989 14.4213 102.52 14.3787 101.837 14.592C100.898 14.848 99.981 15.616 99.085 16.896C98.2317 18.1333 97.4637 19.52 96.781 21.056C96.141 22.5493 95.6503 24.0213 95.309 25.472C94.9677 26.9227 94.861 27.9893 94.989 28.672C95.0317 29.0133 95.2023 29.1627 95.501 29.12C95.7997 29.0773 96.1623 28.928 96.589 28.672C97.0157 28.3733 97.4637 28.032 97.933 27.648C98.4023 27.2213 98.829 26.7947 99.213 26.368C99.8957 24.0213 100.706 21.5253 101.645 18.88C100.877 18.88 100.28 18.6667 99.853 18.24ZM95.501 38.592C95.6717 38.1227 95.821 37.6533 95.949 37.184C96.077 36.7147 96.2263 36.2453 96.397 35.776L95.757 36.16C94.733 36.8 94.093 37.376 93.837 37.888C93.6237 38.4427 93.6023 38.8693 93.773 39.168C93.9863 39.4667 94.2637 39.5947 94.605 39.552C94.989 39.5093 95.2877 39.1893 95.501 38.592ZM116.391 21.184L119.719 16.384C119.762 16.2987 119.932 16.0853 120.231 15.744C120.53 15.36 120.871 14.976 121.255 14.592C121.682 14.208 122.151 13.8667 122.663 13.568C123.218 13.2693 123.772 13.1413 124.327 13.184C125.095 13.2267 125.628 13.3973 125.927 13.696C126.226 13.9947 126.418 14.3147 126.503 14.656C126.588 15.0827 126.546 15.68 126.375 16.448C126.204 17.216 125.97 18.048 125.671 18.944C125.415 19.7973 125.159 20.6507 124.903 21.504C124.647 22.3573 124.476 23.0827 124.391 23.68C124.092 24.8747 124.092 25.6 124.391 25.856C124.732 26.0693 125.244 25.9627 125.927 25.536C126.61 25.0667 127.399 24.3627 128.295 23.424C129.234 22.4427 130.151 21.376 131.047 20.224C131.047 20.2667 131.111 20.3733 131.239 20.544C131.367 20.672 131.452 20.864 131.495 21.12C131.58 21.376 131.602 21.6747 131.559 22.016C131.516 22.3573 131.346 22.72 131.047 23.104C129.852 24.5973 128.572 25.8347 127.207 26.816C125.884 27.7547 124.327 28.224 122.535 28.224C121.682 28.224 120.892 28.032 120.167 27.648C119.484 27.2213 119.079 26.5387 118.951 25.6C118.951 25.344 118.994 24.9813 119.079 24.512C119.164 24.0427 119.292 23.552 119.463 23.04C119.634 22.4853 119.804 21.9307 119.975 21.376C120.146 20.7787 120.295 20.2667 120.423 19.84C120.636 19.2 120.658 18.88 120.487 18.88C120.359 18.8373 120.146 18.944 119.847 19.2C119.591 19.456 119.314 19.776 119.015 20.16C118.716 20.544 118.503 20.8427 118.375 21.056C117.991 21.7813 117.458 22.656 116.775 23.68C116.092 24.6613 115.516 25.5573 115.047 26.368L114.663 27.84C114.151 29.7173 113.596 30.8907 112.999 31.36C112.402 31.8293 111.612 32.0427 110.631 32C109.991 31.9573 109.5 31.744 109.159 31.36C108.775 30.976 108.668 30.4213 108.839 29.696C109.052 28.672 109.308 27.5413 109.607 26.304C109.906 25.024 110.247 23.7013 110.631 22.336C111.058 20.9707 111.506 19.6267 111.975 18.304C112.444 16.9387 112.956 15.6373 113.511 14.4C113.724 13.888 114.087 13.5467 114.599 13.376C115.154 13.1627 115.708 13.0773 116.263 13.12C116.86 13.1627 117.351 13.2693 117.735 13.44C118.162 13.6107 118.354 13.7813 118.311 13.952L116.391 21.184ZM146.21 15.168C146.381 16.064 146.082 16.832 145.314 17.472C145.655 17.5573 145.933 17.6427 146.146 17.728C146.359 17.8133 146.445 17.8987 146.402 17.984C146.061 19.5627 145.634 21.0773 145.122 22.528C144.61 23.9787 144.183 25.4507 143.842 26.944C143.543 28.1387 143.543 28.7147 143.842 28.672C144.183 28.6293 144.717 28.2027 145.442 27.392C146.167 26.5813 147.021 25.536 148.002 24.256C149.026 22.9333 150.071 21.5893 151.138 20.224C151.138 20.2667 151.202 20.3733 151.33 20.544C151.458 20.672 151.565 20.864 151.65 21.12C151.735 21.376 151.735 21.6747 151.65 22.016C151.607 22.3573 151.437 22.72 151.138 23.104C150.285 24.128 149.538 25.0453 148.898 25.856C148.258 26.624 147.639 27.328 147.042 27.968C146.445 28.608 145.826 29.2053 145.186 29.76C144.589 30.3147 143.885 30.8693 143.074 31.424C142.647 31.7653 142.157 31.9787 141.602 32.064C141.09 32.1493 140.578 32.128 140.066 32C139.597 31.9147 139.17 31.744 138.786 31.488C138.445 31.232 138.231 30.9333 138.146 30.592C138.061 30.2933 138.018 29.9733 138.018 29.632C138.061 29.2907 138.103 28.928 138.146 28.544C137.207 29.44 136.183 30.2507 135.074 30.976C133.965 31.7013 132.919 32.064 131.938 32.064C130.999 32.064 130.253 31.872 129.698 31.488C129.143 31.104 128.781 30.6133 128.61 30.016C128.183 28.5653 128.205 26.8587 128.674 24.896C129.143 22.9333 129.954 21.0773 131.106 19.328C132.301 17.536 133.794 16.0427 135.586 14.848C137.421 13.6107 139.469 13.0133 141.73 13.056C142.797 13.056 143.757 13.2267 144.61 13.568C145.506 13.9093 146.039 14.4427 146.21 15.168ZM138.978 18.24C140.087 18.0267 140.941 17.6853 141.538 17.216C142.178 16.7467 142.583 16.192 142.754 15.552C142.797 15.296 142.669 15.0187 142.37 14.72C142.114 14.4213 141.645 14.3787 140.962 14.592C140.023 14.848 139.106 15.616 138.21 16.896C137.357 18.1333 136.589 19.52 135.906 21.056C135.266 22.5493 134.775 24.0213 134.434 25.472C134.093 26.9227 133.986 27.9893 134.114 28.672C134.157 29.0133 134.349 29.1627 134.69 29.12C135.074 29.0347 135.479 28.8427 135.906 28.544C136.375 28.2027 136.845 27.8187 137.314 27.392C137.826 26.9227 138.274 26.4533 138.658 25.984C138.957 24.7893 139.298 23.5733 139.682 22.336C140.066 21.0987 140.429 19.9467 140.77 18.88C140.002 18.88 139.405 18.6667 138.978 18.24ZM165.119 15.04C165.204 15.296 165.183 15.9147 165.055 16.896C164.927 17.8773 164.714 19.0507 164.415 20.416L166.911 16.32C166.954 16.2347 167.082 16.0213 167.295 15.68C167.508 15.3387 167.786 14.976 168.127 14.592C168.468 14.208 168.874 13.888 169.343 13.632C169.812 13.3333 170.324 13.184 170.879 13.184C171.476 13.2267 172.01 13.3973 172.479 13.696C172.991 13.9947 173.311 14.4427 173.439 15.04C173.567 15.5093 173.588 16.064 173.503 16.704C173.418 17.344 173.247 18.1333 172.991 19.072C172.735 19.968 172.394 21.056 171.967 22.336C171.583 23.616 171.135 25.152 170.623 26.944C170.324 28.1387 170.346 28.7147 170.687 28.672C171.028 28.6293 171.562 28.2027 172.287 27.392C173.055 26.5813 173.951 25.536 174.975 24.256C176.042 22.9333 177.108 21.5893 178.175 20.224C178.175 20.2667 178.239 20.3733 178.367 20.544C178.495 20.672 178.602 20.864 178.687 21.12C178.772 21.376 178.772 21.6747 178.687 22.016C178.644 22.3573 178.474 22.72 178.175 23.104C177.322 24.128 176.575 25.0453 175.935 25.856C175.295 26.624 174.676 27.328 174.079 27.968C173.482 28.608 172.863 29.2053 172.223 29.76C171.626 30.3147 170.922 30.8693 170.111 31.424C169.642 31.7653 169.108 31.9573 168.511 32C167.956 32.0427 167.402 31.9787 166.847 31.808C166.335 31.6373 165.887 31.36 165.503 30.976C165.162 30.592 165.012 30.144 165.055 29.632C165.14 28.1813 165.396 26.688 165.823 25.152C166.292 23.5733 166.847 21.8027 167.487 19.84C167.615 19.4133 167.636 19.2 167.551 19.2C167.508 19.1573 167.402 19.2427 167.231 19.456C167.103 19.6693 166.932 19.9467 166.719 20.288C166.548 20.5867 166.399 20.8427 166.271 21.056C165.844 21.7813 165.29 22.656 164.607 23.68C163.967 24.6613 163.412 25.5573 162.943 26.368C162.858 26.624 162.772 26.88 162.687 27.136C162.644 27.392 162.58 27.6267 162.495 27.84C161.983 29.7173 161.428 30.8907 160.831 31.36C160.276 31.8293 159.508 32.0427 158.527 32C157.076 31.9147 156.372 31.1467 156.415 29.696C156.5 28.2453 156.799 26.7307 157.311 25.152C157.866 23.5733 158.463 21.8027 159.103 19.84C159.231 19.4133 159.231 19.2 159.103 19.2C159.018 19.2 158.89 19.3067 158.719 19.52C158.548 19.7333 158.356 20.0107 158.143 20.352C157.93 20.6933 157.78 20.9707 157.695 21.184C157.226 21.9947 156.586 22.976 155.775 24.128C155.007 25.2373 154.367 26.1973 153.855 27.008L153.663 27.84C153.151 29.7173 152.596 30.8907 151.999 31.36C151.402 31.8293 150.612 32.0427 149.631 32C148.991 31.9573 148.5 31.744 148.159 31.36C147.775 30.976 147.668 30.4213 147.839 29.696C148.052 28.672 148.308 27.5413 148.607 26.304C148.906 25.024 149.247 23.7013 149.631 22.336C150.058 20.9707 150.506 19.6267 150.975 18.304C151.444 16.9387 151.956 15.6373 152.511 14.4C152.724 13.888 153.087 13.5467 153.599 13.376C154.154 13.1627 154.708 13.0773 155.263 13.12C155.86 13.1627 156.351 13.2693 156.735 13.44C157.162 13.6107 157.354 13.7813 157.311 13.952L155.327 21.504L158.463 16.32C158.548 16.2347 158.698 16.0213 158.911 15.68C159.124 15.3387 159.402 14.976 159.743 14.592C160.084 14.208 160.468 13.888 160.895 13.632C161.364 13.3333 161.876 13.184 162.431 13.184C163.796 13.2693 164.692 13.888 165.119 15.04Z" fill="#262626"/>
</svg>
